REM DIRINDEX 1\2,1\3,1\4
REM DIRNAME cjc151,folder01,folder02,folder03
TITLE ""
FILE "032 032_TOEFL_3900.mp3" MP3
  TRACK 01 AUDIO
    TITLE "2:cjc151_1373"
    INDEX 01 00:00:00
  TRACK 02 AUDIO
    TITLE "0:"
    INDEX 01 00:01:13
  TRACK 03 AUDIO
    TITLE "3:cjc151_1374"
    INDEX 01 00:02:65
  TRACK 04 AUDIO
    TITLE "0:"
    INDEX 01 00:06:45
  TRACK 05 AUDIO
    TITLE "2:cjc151_1375"
    INDEX 01 00:08:24
  TRACK 06 AUDIO
    TITLE "0:"
    INDEX 01 00:09:44
  TRACK 07 AUDIO
    TITLE "3:cjc151_1376"
    INDEX 01 00:11:25
  TRACK 08 AUDIO
    TITLE "0:"
    INDEX 01 00:14:29
  TRACK 09 AUDIO
    TITLE "2:cjc151_1377"
    INDEX 01 00:16:08
  TRACK 10 AUDIO
    TITLE "0:"
    INDEX 01 00:17:27
  TRACK 11 AUDIO
    TITLE "3:cjc151_1378"
    INDEX 01 00:19:05
  TRACK 12 AUDIO
    TITLE "0:"
    INDEX 01 00:23:14
  TRACK 13 AUDIO
    TITLE "2:cjc151_1379"
    INDEX 01 00:24:69
  TRACK 14 AUDIO
    TITLE "0:"
    INDEX 01 00:26:09
  TRACK 15 AUDIO
    TITLE "3:cjc151_1380"
    INDEX 01 00:27:65
  TRACK 16 AUDIO
    TITLE "0:"
    INDEX 01 00:31:18
  TRACK 17 AUDIO
    TITLE "2:cjc151_1381"
    INDEX 01 00:32:72
  TRACK 18 AUDIO
    TITLE "0:"
    INDEX 01 00:33:69
  TRACK 19 AUDIO
    TITLE "3:cjc151_1382"
    INDEX 01 00:35:51
  TRACK 20 AUDIO
    TITLE "0:"
    INDEX 01 00:39:37
  TRACK 21 AUDIO
    TITLE "2:cjc151_1383"
    INDEX 01 00:41:16
  TRACK 22 AUDIO
    TITLE "0:"
    INDEX 01 00:42:21
  TRACK 23 AUDIO
    TITLE "3:cjc151_1384"
    INDEX 01 00:43:74
  TRACK 24 AUDIO
    TITLE "0:"
    INDEX 01 00:47:56
  TRACK 25 AUDIO
    TITLE "2:cjc151_1385"
    INDEX 01 00:49:35
  TRACK 26 AUDIO
    TITLE "0:"
    INDEX 01 00:50:42
  TRACK 27 AUDIO
    TITLE "3:cjc151_1386"
    INDEX 01 00:52:24
  TRACK 28 AUDIO
    TITLE "0:"
    INDEX 01 00:56:67
  TRACK 29 AUDIO
    TITLE "2:cjc151_1387"
    INDEX 01 00:58:46
  TRACK 30 AUDIO
    TITLE "0:"
    INDEX 01 00:59:61
  TRACK 31 AUDIO
    TITLE "3:cjc151_1388"
    INDEX 01 01:01:38
  TRACK 32 AUDIO
    TITLE "0:"
    INDEX 01 01:05:38
  TRACK 33 AUDIO
    TITLE "2:cjc151_1389"
    INDEX 01 01:07:17
  TRACK 34 AUDIO
    TITLE "0:"
    INDEX 01 01:08:46
  TRACK 35 AUDIO
    TITLE "3:cjc151_1390"
    INDEX 01 01:10:26
  TRACK 36 AUDIO
    TITLE "0:"
    INDEX 01 01:14:17
  TRACK 37 AUDIO
    TITLE "2:cjc151_1391"
    INDEX 01 01:15:74
  TRACK 38 AUDIO
    TITLE "0:"
    INDEX 01 01:16:71
  TRACK 39 AUDIO
    TITLE "3:cjc151_1392"
    INDEX 01 01:18:53
  TRACK 40 AUDIO
    TITLE "0:"
    INDEX 01 01:23:01
  TRACK 41 AUDIO
    TITLE "2:cjc151_1393"
    INDEX 01 01:24:55
  TRACK 42 AUDIO
    TITLE "0:"
    INDEX 01 01:25:53
  TRACK 43 AUDIO
    TITLE "3:cjc151_1394"
    INDEX 01 01:27:34
  TRACK 44 AUDIO
    TITLE "0:"
    INDEX 01 01:30:54
  TRACK 45 AUDIO
    TITLE "2:cjc151_1395"
    INDEX 01 01:32:41
  TRACK 46 AUDIO
    TITLE "0:"
    INDEX 01 01:33:44
  TRACK 47 AUDIO
    TITLE "3:cjc151_1396"
    INDEX 01 01:35:26
  TRACK 48 AUDIO
    TITLE "0:"
    INDEX 01 01:38:65
  TRACK 49 AUDIO
    TITLE "2:cjc151_1397"
    INDEX 01 01:40:46
  TRACK 50 AUDIO
    TITLE "0:"
    INDEX 01 01:41:56
  TRACK 51 AUDIO
    TITLE "3:cjc151_1398"
    INDEX 01 01:43:35
  TRACK 52 AUDIO
    TITLE "0:"
    INDEX 01 01:47:39
  TRACK 53 AUDIO
    TITLE "2:cjc151_1399"
    INDEX 01 01:49:16
  TRACK 54 AUDIO
    TITLE "0:"
    INDEX 01 01:50:21
  TRACK 55 AUDIO
    TITLE "3:cjc151_1400"
    INDEX 01 01:51:74
  TRACK 56 AUDIO
    TITLE "0:"
    INDEX 01 01:56:02
  TRACK 57 AUDIO
    TITLE "2:cjc151_1401"
    INDEX 01 01:57:57
  TRACK 58 AUDIO
    TITLE "0:"
    INDEX 01 01:58:72
  TRACK 59 AUDIO
    TITLE "3:cjc151_1402"
    INDEX 01 02:00:51
  TRACK 60 AUDIO
    TITLE "0:"
    INDEX 01 02:04:66
  TRACK 61 AUDIO
    TITLE "2:cjc151_1403"
    INDEX 01 02:06:46
  TRACK 62 AUDIO
    TITLE "0:"
    INDEX 01 02:07:45
  TRACK 63 AUDIO
    TITLE "3:cjc151_1404"
    INDEX 01 02:09:22
  TRACK 64 AUDIO
    TITLE "0:"
    INDEX 01 02:12:46
  TRACK 65 AUDIO
    TITLE "2:cjc151_1405"
    INDEX 01 02:14:28
  TRACK 66 AUDIO
    TITLE "0:"
    INDEX 01 02:15:39
  TRACK 67 AUDIO
    TITLE "3:cjc151_1406"
    INDEX 01 02:17:14
  TRACK 68 AUDIO
    TITLE "0:"
    INDEX 01 02:21:24
  TRACK 69 AUDIO
    TITLE "2:cjc151_1407"
    INDEX 01 02:23:03
  TRACK 70 AUDIO
    TITLE "0:"
    INDEX 01 02:24:32
  TRACK 71 AUDIO
    TITLE "3:cjc151_1408"
    INDEX 01 02:26:11
  TRACK 72 AUDIO
    TITLE "0:"
    INDEX 01 02:29:64
  TRACK 73 AUDIO
    TITLE "2:cjc151_1409"
    INDEX 01 02:31:44
  TRACK 74 AUDIO
    TITLE "0:"
    INDEX 01 02:32:37
  TRACK 75 AUDIO
    TITLE "3:cjc151_1410"
    INDEX 01 02:34:17
  TRACK 76 AUDIO
    TITLE "0:"
    INDEX 01 02:38:12
  TRACK 77 AUDIO
    TITLE "2:cjc151_1411"
    INDEX 01 02:39:65
  TRACK 78 AUDIO
    TITLE "0:"
    INDEX 01 02:41:09
  TRACK 79 AUDIO
    TITLE "3:cjc151_1412"
    INDEX 01 02:42:65
  TRACK 80 AUDIO
    TITLE "0:"
    INDEX 01 02:46:14
  TRACK 81 AUDIO
    TITLE "2:cjc151_1413"
    INDEX 01 02:47:68
  TRACK 82 AUDIO
    TITLE "0:"
    INDEX 01 02:49:26
  TRACK 83 AUDIO
    TITLE "3:cjc151_1414"
    INDEX 01 02:51:05
  TRACK 84 AUDIO
    TITLE "0:"
    INDEX 01 02:55:27
  TRACK 85 AUDIO
    TITLE "2:cjc151_1415"
    INDEX 01 02:57:06
  TRACK 86 AUDIO
    TITLE "0:"
    INDEX 01 02:58:05
  TRACK 87 AUDIO
    TITLE "3:cjc151_1416"
    INDEX 01 02:59:62
  TRACK 88 AUDIO
    TITLE "0:"
    INDEX 01 03:02:74
